max v2;#N vpatcher 233 53 1041 823;#P window setfont "Sans Serif" 9.;#P window linecount 1;#P newex 311 388 60 196617 loadmess 1;#P newex 160 463 66 196617 loadmess 20;#P newex 180 424 43 196617 pipe 10;#P newex 179 403 40 196617 change;#P newex 182 380 31 196617 == 0;#P toggle 235 382 15 0;#P message 235 404 45 196617 mute \$1;#P newex 233 425 52 196617 thispoly~;#N out~ 1;#P newobj 92 628 39 196617 out~ 1;#P newex 92 603 58 196617 clip~ -1 1;#P newex 93 582 50 196617 bitsafe~;#P newex 224 530 20 196617 t b;#B color 14;#P newex 113 534 105 196617 unpack f f f f f f f f;#B color 14;#P newex 93 556 160 196617 jk.zerhacker.pat;#B color 14;#P newex 220 55 75 196617 jk.soundlooper;#B color 14;#P user gain~ 93 152 26 58 158 14 1.071519 7.94321 10.;#P user gain~ 63 151 26 58 158 14 1.071519 7.94321 10.;#P newex 11 60 75 196617 jk.soundlooper;#B color 14;#N vpatcher 220 177 820 577;#P window setfont "Sans Serif" 9.;#P window linecount 1;#P newex 11 141 50 196617 del 2000;#P message 20 177 33 196617 clear;#P outlet 24 262 15 0;#P window linecount 0;#P message 53 115 14 196617 1;#P window linecount 1;#P newex 46 96 44 196617 del 400;#P window linecount 0;#P newex 15 63 48 196617 loadbang;#P newex 117 110 29 196617 gate;#P inlet 118 69 15 0;#P message 299 217 37 196617 \$1 80;#P outlet 285 258 15 0;#P newex 299 236 50 196617 line~ 0.2;#P message 247 214 37 196617 \$1 80;#P outlet 246 258 15 0;#P newex 247 233 50 196617 line~ 0.2;#P message 188 217 37 196617 \$1 80;#P outlet 187 261 15 0;#P newex 188 236 50 196617 line~ 0.1;#P message 130 215 37 196617 \$1 80;#P outlet 129 259 15 0;#P newex 130 234 50 196617 line~ 0.1;#P message 69 215 37 196617 \$1 80;#P outlet 87 261 15 0;#P window linecount 1;#P newex 69 234 50 196617 line~ 0.9;#P window linecount 0;#P newex 115 187 144 196617 unpack 0. 0. 0. 0. 0.;#P connect 18 0 23 0;#P connect 23 0 22 0;#P connect 22 0 21 0;#P connect 18 0 19 0;#P connect 19 0 20 0;#P connect 0 0 3 0;#P connect 3 0 1 0;#P connect 1 0 2 0;#P connect 17 0 0 0;#P connect 20 0 17 0;#P connect 4 0 5 0;#P connect 0 1 6 0;#P connect 6 0 4 0;#P connect 16 0 17 1;#P connect 7 0 8 0;#P connect 0 2 9 0;#P connect 9 0 7 0;#P connect 10 0 11 0;#P connect 0 3 12 0;#P connect 12 0 10 0;#P connect 13 0 14 0;#P connect 0 4 15 0;#P connect 15 0 13 0;#P pop;#P newobj 118 268 93 196617 p filtercoeff;#N vtable 158 503 188 1111 695 999920 158 vol-corr;#T set 0 0 0 29 36 42 46 49 53 55 58 60 62 64 66 68 70 72 73 75 76 77 79 80 81 83 84 85 86 87 88 89 90 91 92 93 94 95 96 97 98 99 99 100 101 102 103 103 104 105 106 106 107 108 109 109 110 111 111 112 113 113 114 115 115 116 116 117 118 118 119 119 120 121 121 122 122 123 123 124 124 125 125 126 126 127 127 128 129 129 129 130 130 131 131 132 132 133 133 134 134 135 135 136 136 136 137 137 138 138 139 139 140 140 140 141 141 142 142 142 143 143 144 144 144 145 145 146 146;#T set 128 146 147 147 148 148 148 149 149 149 150 150 151 151 151 152 152 152 153 153 153 154 154 154 155 155 155 156 156 157 157;#P newobj 241 336 74 196617 table vol-corr;#P newex 96 305 134 196617 biquad~ 0.9 0.1 0.1 0.2 0.2;#P newex 241 316 27 196617 i;#P newex 502 285 44 196617 del 100;#P message 473 285 14 196617 1;#P newex 501 246 20 196617 t b;#P user gain~ 96 373 55 37 158 0 1.071519 7.94321 20.;#N vpatcher 10 59 610 459;#P window setfont "Sans Serif" 9.;#P newex 179 50 66 196617 loadmess 60;#N vtable 128 10 59 220 226 4 128 constant-panning;#P newobj 165 95 111 196617 table constant-panning;#N vtable 128 10 59 220 226 4 128 constant-panning;#P newobj 51 95 111 196617 table constant-panning;#P newex 50 70 39 196617 !- 127;#P inlet 50 50 15 0;#P inlet 165 75 15 0;#P outlet 51 117 15 0;#P outlet 165 117 15 0;#P connect 7 0 4 0;#P connect 3 0 4 0;#P connect 4 0 5 0;#P connect 5 0 1 0;#P connect 7 0 6 0;#P connect 2 0 6 0;#P connect 6 0 0 0;#P pop;#P newobj 321 53 76 196617 p constant-pan;#B color 14;#P newex 61 249 47 196617 bitsafe~;#N in 3;#P newobj 67 36 25 196617 in 3;#N in 15;#P newobj 527 36 33 196617 in 15;#N in 5;#P newobj 126 36 25 196617 in 5;#N in 10;#P newobj 285 30 33 196617 in 10;#N in 9;#P newobj 259 30 25 196617 in 9;#N in 8;#P newobj 232 31 25 196617 in 8;#N in 18;#P newobj 660 36 33 196617 in 18;#N in 14;#P newobj 478 35 33 196617 in 14;#N in 7;#P newobj 205 31 25 196617 in 7;#N in 17;#P newobj 626 36 33 196617 in 17;#N in 1;#P newobj 8 36 25 196617 in 1;#N in 6;#P newobj 178 31 25 196617 in 6;#N in 11;#P newobj 322 30 33 196617 in 11;#N in 12;#P newobj 388 32 33 196617 in 12;#N in 13;#P newobj 442 36 33 196617 in 13;#N in 16;#P newobj 577 35 33 196617 in 16;#N in 4;#P newobj 96 36 25 196617 in 4;#N in 2;#P newobj 35 36 25 196617 in 2;#P connect 7 0 28 0;#P connect 0 0 28 1;#P connect 17 0 28 2;#P connect 1 0 28 3;#P connect 29 0 18 0;#P connect 30 0 18 0;#P fasten 19 0 29 0 326 143 68 143;#P fasten 28 0 29 0 16 114 68 114;#P connect 15 0 28 4;#P connect 35 0 36 0;#P connect 36 0 37 0;#P fasten 19 1 30 0 392 142 98 142;#P fasten 31 0 30 0 225 146 98 146;#P connect 20 0 32 0;#P connect 32 0 35 0;#P connect 27 0 25 0;#P connect 18 0 25 0;#P fasten 22 0 20 0 478 360 101 360;#P connect 26 0 20 0;#P connect 25 0 20 0;#P connect 33 0 32 1;#P fasten 2 0 33 0 582 509 118 509;#P fasten 3 0 27 0 447 161 123 161;#P connect 27 1 25 1;#P connect 33 1 32 2;#P connect 33 2 32 3;#P connect 44 0 20 1;#P connect 27 2 25 2;#P connect 33 3 32 4;#P connect 27 3 25 3;#P connect 33 4 32 5;#P connect 41 0 42 0;#P connect 42 0 43 0;#P fasten 20 1 41 0 146 448 166 448 166 376 187 376;#P connect 33 5 32 6;#P connect 27 4 25 4;#P connect 33 6 32 7;#P connect 33 7 32 8;#P connect 27 5 25 5;#P connect 6 0 31 0;#P fasten 8 0 34 0 631 522 229 522;#P connect 34 0 32 9;#P connect 39 0 38 0;#P connect 45 0 40 0;#P connect 43 0 40 0;#P connect 40 0 39 0;#P connect 9 0 31 1;#P fasten 10 0 24 0 483 186 246 186;#P fasten 23 0 24 0 507 311 246 311;#P connect 24 0 26 0;#P fasten 11 0 32 10 665 543 248 543;#P connect 12 0 31 2;#P connect 13 0 31 3;#P connect 14 0 31 4;#P connect 5 0 19 0;#P connect 4 0 19 1;#P connect 21 0 22 0;#P fasten 16 0 21 0 532 153 506 153;#P fasten 31 1 21 0 290 82 506 82;#P fasten 28 1 21 0 81 126 506 126;#P connect 21 0 23 0;#P pop;