max v2;#N vpatcher 10 59 610 459;#P window setfont "Sans Serif" 9.;#P window linecount 1;#P message 214 180 78 196617 brgb $2 $3 $4;#P newex 237 139 48 196617 loadbang;#P hidden outlet 97 258 15 0;#P hidden button 101 230 15 0;#N vpatcher 460 345 650 578;#P window setfont "Sans Serif" 9.;#P message 97 54 34 196617 nopoll;#P newex 71 120 28 196617 t b b;#P newex 13 112 28 196617 t b b;#P newex 71 32 45 196617 loadbang;#P message 71 54 24 196617 poll;#P newex 71 100 30 196617 sel 0;#P newex 71 77 66 196617 mousestate;#P message 13 164 55 196617 shadow -2;#P message 71 164 50 196617 shadow 2;#P inlet 13 90 15 0;#P outlet 13 190 15 0;#P connect 1 0 8 0;#P connect 8 0 3 0;#P connect 3 0 0 0;#P connect 2 0 0 0;#P connect 7 0 6 0;#P fasten 8 1 6 0 36 134 48 134 48 51 76 51;#P connect 6 0 4 0;#P connect 10 0 4 0;#P connect 4 0 5 0;#P connect 5 0 9 0;#P fasten 9 1 2 0 94 152 76 152;#P fasten 9 0 10 0 76 146 147 146 147 50 102 50;#P pop;#P hidden newobj 97 187 27 196617 p;#P comment 93 146 41 196617 $1;#P user ubutton 92 143 46 20 0 2;#P user panel 91 144 45 17;#X brgb 234 255 191;#X frgb 0 0 0;#X border 1;#X rounded 8;#X shadow 2;#X done;#P hidden connect 7 0 0 0;#P hidden connect 3 0 0 0;#P hidden connect 1 1 3 0;#P hidden connect 4 0 5 0;#P hidden connect 1 1 4 0;#P connect 6 0 7 0;#P pop;