max v2;#N vpatcher 18 71 808 539;#P window setfont "Sans Serif" 9.;#P window linecount 1;#P newex 669 357 62 196617 prepend set;#P newex 668 333 40 196617 change;#P newex 667 312 27 196617 > 0;#P objectname >;#N vpatcher 10 59 610 459;#P window setfont "Sans Serif" 9.;#P newex 77 68 27 196617 i;#P newex 78 46 27 196617 t i b;#P newex 76 97 27 196617 i;#P inlet 78 26 15 0;#P inlet 165 52 15 0;#P outlet 76 119 15 0;#P connect 1 0 3 0;#P connect 3 0 0 0;#P connect 4 1 5 0;#P connect 2 0 4 0;#P connect 5 0 3 1;#P connect 4 0 5 1;#P pop;#P newobj 259 338 58 196617 p RESTORE;#N vpatcher 10 59 610 459;#P window setfont "Sans Serif" 9.;#P newex 77 68 27 196617 i;#P newex 78 46 27 196617 t i b;#P newex 76 97 27 196617 i;#P inlet 78 26 15 0;#P inlet 165 52 15 0;#P outlet 76 119 15 0;#P connect 1 0 3 0;#P connect 3 0 0 0;#P connect 4 1 5 0;#P connect 2 0 4 0;#P connect 5 0 3 1;#P connect 4 0 5 1;#P pop;#P newobj 244 316 58 196617 p RESTORE;#N vpatcher 10 59 610 459;#P window setfont "Sans Serif" 9.;#P newex 77 68 27 196617 i;#P newex 78 46 27 196617 t i b;#P newex 76 97 27 196617 i;#P inlet 78 26 15 0;#P inlet 165 52 15 0;#P outlet 76 119 15 0;#P connect 1 0 3 0;#P connect 3 0 0 0;#P connect 4 1 5 0;#P connect 2 0 4 0;#P connect 5 0 3 1;#P connect 4 0 5 1;#P pop;#P newobj 17 289 58 196617 p RESTORE;#P outlet 678 402 15 0;#P hidden message 574 91 14 196617 0;#P hidden message 591 91 14 196617 0;#P hidden newex 561 69 40 196617 t b b b;#P hidden newex 561 48 118 196617 select 0 1;#P hidden inlet 560 30 15 0;#P flonum 259 123 54 9 0 0 32 3 0 0 0 221 221 221 222 222 222 0 0 0;#P objectname flonum[6];#P newex 489 117 199 196617 autopattr guest4.INTERFACE @autoname 1;#X prestore flonum 1 0 0.;#X prestore flonum[1] 1 0 0.;#X prestore flonum[2] 1 0 127.;#X prestore flonum[3] 1 0 0.;#X prestore flonum[4] 1 0 127.;#X prestore flonum[5] 1 0 1.;#X prestore flonum[6] 1 0 0.;#X prestore hslider 1 0 0;#X prestore rslider 2 0 0 127;#X prestore toggle 1 0 0;#X prestore toggle[1] 1 0 0;#X prestore ubumenu 1 0 off;#X prestore uslider 1 0 0;#P objectname guest4.INTERFACE;#P hidden newex 420 33 48 196617 loadbang;#P hidden message 469 58 14 196617 1;#P hidden message 439 59 26 196617 127;#P hidden message 414 58 14 196617 0;#P hidden newex 306 148 60 196617 select none;#P hidden newex 308 174 62 196617 prepend set;#P flonum 443 116 35 9 0. 100. 3 3 0 0 0 221 221 221 222 222 222 0 0 0;#P objectname flonum[5];#P flonum 409 123 35 9 0 0 0 3 0 0 0 221 221 221 222 222 222 0 0 0;#P objectname flonum[4];#P flonum 375 123 35 9 0 0 0 3 0 0 0 221 221 221 222 222 222 0 0 0;#P objectname flonum[3];#P flonum 409 109 35 9 0 0 0 3 0 0 0 221 221 221 222 222 222 0 0 0;#P objectname flonum[2];#P flonum 375 109 35 9 0 0 0 3 0 0 0 221 221 221 222 222 222 0 0 0;#P objectname flonum[1];#N vpatcher 10 59 610 459;#P outlet 122 214 15 0;#P inlet 278 34 15 0;#P inlet 248 35 15 0;#P inlet 219 34 15 0;#P inlet 190 32 15 0;#P inlet 161 31 15 0;#P inlet 126 34 15 0;#P window setfont "Sans Serif" 9.;#P window linecount 1;#P newex 124 132 164 196617 expr pow($f1 \\\, $f2);#P newex 124 188 93 196617 scale 0. 1. 0. 127.;#P window linecount 0;#P newex 126 89 93 196617 scale 0. 127. 0. 1.;#P connect 1 0 9 0;#P connect 0 0 2 0;#P connect 2 0 1 0;#P connect 3 0 0 0;#P fasten 4 0 0 1 166 59 147 59;#P fasten 5 0 0 2 195 68 163 68;#P fasten 6 0 1 3 224 164 177 164;#P fasten 7 0 1 4 253 172 193 172;#P connect 8 0 2 1;#P pop;#P newobj 350 236 90 196617 p myscale;#P hidden newex 309 197 14 196617 r;#P objectname receive;#P user uslider 215 110 13 11 128 1 0 0;#P objectname uslider;#P hidden message 219 63 54 196617 set 0 127;#P user rslider 15 109 189 11 128 1 0 0 1;#P objectname rslider;#P toggle 203 123 13 0;#P objectname toggle[1];#P user ubumenu 312 116 64 196617 0 1 1 0;#X setrgb 31 31 31 231 255 59 234 234 234 4 4 4 141 141 141 112 112 112;#X add off;#X add guest4.filter_q_factor;#X add guest4.filter_c_freq;#X add guest4.fine_tune;#X add guest4.lautstaerke;#X add guest4.filter_q_factor;#X add guest4.filter_c_freq;#X add guest4.fine_tune;#X add guest4.lautstaerke;#X prefix_set 0 0 <none> 0;#X pattrmode 1;#P objectname ubumenu;#P flonum 259 109 54 9 0 0 32 3 0 0 0 221 221 221 222 222 222 0 0 0;#P objectname flonum;#P outlet 180 271 15 0;#P hidden message 174 62 33 196617 set 1;#P newex 106 269 72 196617 jk.netsend $5;#P message 227 116 33 196617 learn;#P hidden newex 34 226 107 196617 jk.midimap $2 $3 $4;#P objectname jk.midimap;#P hidden message 122 62 49 196617 color $1;#P hidden newex 136 35 48 196617 loadbang;#P toggle 203 111 13 0;#P objectname toggle;#P newex 28 158 128 196617 jk.physics 0. 127. 0.99 9.;#P user hslider 15 119 19 173 128 1 0 0;#P objectname hslider;#P comment 93 207 126 196617 scale from / to / power;#N vpatcher 282 188 1034 697;#P window setfont "Sans Serif" 9.;#P window linecount 0;#P message 602 353 58 196617 symbol off;#P message 542 351 56 196617 append off;#P newex 591 268 44 196617 del 100;#P newex 545 268 44 196617 del 100;#P newex 544 228 34 196617 defer;#P newex 419 142 34 196617 defer;#B color 14;#P newex 206 239 44 196617 del 100;#P newex 172 326 20 196617 t b;#P message 173 349 14 196617 0;#P outlet 362 454 15 0;#P window linecount 1;#P newex 138 300 46 196617 select 0;#P window linecount 0;#P newex 253 217 30 196617 t b b;#P message 220 283 58 196617 symbol off;#P message 494 352 33 196617 clear;#P newex 533 186 69 196617 r fill-menues;#P newex 278 314 60 196617 select none;#P message 274 238 14 196617 0;#P message 324 239 14 196617 1;#P newex 290 195 40 196617 t b b b;#P newex 89 302 29 196617 gate;#P window linecount 1;#P newex 419 119 78 196617 prepend append;#P newex 371 99 60 196617 select none;#P newex 371 78 109 196617 r jk.netsend-response;#P newex 89 373 75 196617 prepend delete;#P message 293 278 58 196617 symbol $5;#P newex 292 151 23 196617 t b;#P newex 293 171 50 196617 del 1500;#B color 14;#P inlet 112 276 15 0;#P outlet 290 454 15 0;#P fasten 11 0 9 0 329 261 94 261;#P fasten 12 0 9 0 279 259 94 259;#P connect 9 0 5 0;#P connect 1 0 9 1;#P connect 1 0 18 0;#P connect 18 1 21 0;#P connect 21 0 20 0;#P connect 17 0 22 0;#P connect 22 0 16 0;#P connect 10 0 17 0;#P connect 17 1 12 0;#P connect 4 0 13 0;#P connect 2 0 10 0;#P connect 16 0 0 0;#P fasten 13 1 0 0 333 372 295 372;#P connect 15 0 0 0;#P connect 5 0 0 0;#P connect 27 0 0 0;#P connect 28 0 0 0;#P fasten 23 0 0 0 424 447 295 447;#P fasten 23 0 3 0 424 202 376 202 376 148 297 148;#P connect 3 0 2 0;#P fasten 10 1 4 0 310 253 298 253;#P connect 10 2 11 0;#P connect 20 0 19 0;#P connect 6 0 7 0;#P connect 7 1 8 0;#P fasten 8 0 23 0 424 139 424 139;#P connect 24 0 15 0;#P connect 25 0 27 0;#P connect 14 0 24 0;#P connect 24 0 25 0;#P connect 25 0 26 0;#P connect 26 0 28 0;#P pop;#P hidden newobj 373 45 27 196617 p;#P hidden fasten 6 0 15 0 127 80 20 80;#P hidden fasten 16 0 15 0 224 80 20 80;#P hidden connect 3 0 2 0;#P hidden fasten 6 0 2 0 127 81 20 81;#P hidden fasten 39 0 2 0 22 319 11 319 11 65 20 65;#P hidden fasten 19 0 2 0 355 388 2 388 2 92 20 92;#P hidden fasten 7 0 2 0 39 263 8 263 8 97 20 97;#P hidden fasten 37 0 2 0 579 107 20 107;#P hidden fasten 2 0 39 0 20 213 22 213;#P hidden connect 2 0 3 0;#P hidden connect 3 1 7 0;#P connect 39 0 7 0;#P hidden connect 4 0 3 1;#P hidden fasten 34 1 39 1 620 261 70 261;#P hidden connect 14 0 3 2;#P hidden connect 15 0 3 3;#P connect 7 1 9 0;#P hidden connect 17 0 3 4;#P hidden connect 5 0 6 0;#P hidden fasten 8 0 7 1 232 148 229 148 229 222 136 222;#P hidden connect 32 0 3 5;#P hidden connect 5 0 10 0;#P connect 7 1 11 0;#P hidden fasten 36 0 4 0 596 108 208 108;#P hidden fasten 10 0 4 0 179 79 208 79;#P hidden fasten 0 1 4 0 395 95 208 95;#P hidden fasten 36 0 14 0 596 108 208 108;#P hidden connect 5 0 16 0;#P hidden fasten 6 0 8 0 127 80 232 80;#P hidden fasten 32 0 40 0 264 227 249 227;#P hidden connect 41 0 12 0;#P hidden fasten 7 1 12 0 136 264 276 264 276 108 264 108;#P hidden fasten 6 0 12 0 127 81 264 81;#P hidden connect 3 2 32 0;#P hidden connect 40 0 32 0;#P hidden fasten 6 0 32 0 127 81 264 81;#P hidden fasten 12 0 41 0 264 231 264 231;#P hidden fasten 34 1 40 1 620 315 297 315;#P hidden connect 13 1 26 0;#P hidden fasten 34 1 41 1 620 337 312 337;#P hidden connect 26 1 25 0;#P connect 25 0 18 0;#P hidden connect 0 0 13 0;#P hidden connect 18 0 19 0;#P hidden connect 20 0 19 1;#P hidden connect 13 0 0 0;#P hidden connect 27 0 20 0;#P hidden connect 27 0 22 0;#P hidden connect 21 0 19 2;#P hidden connect 22 0 19 3;#P hidden connect 28 0 21 0;#P hidden connect 28 0 23 0;#P hidden connect 30 0 27 0;#P hidden connect 23 0 19 4;#P hidden connect 24 0 19 5;#P hidden connect 30 0 28 0;#P hidden connect 29 0 24 0;#P hidden connect 30 0 29 0;#P hidden connect 33 0 34 0;#P hidden connect 34 0 35 0;#P hidden connect 35 1 37 0;#P hidden connect 35 2 36 0;#P hidden connect 2 0 42 0;#P connect 42 0 43 0;#P connect 43 0 44 0;#P connect 44 0 38 0;#P pop;