max v2;#N vpatcher 30 89 630 489;#P inlet 208 30 15 0;#P outlet 50 183 15 0;#P window setfont "Sans Serif" 9.;#P window linecount 1;#P newex 208 50 62 196617 prepend set;#P newex 84 125 21 196617 t 1;#P newex 50 159 27 196617 i;#P newex 84 100 37 196617 match;#P newex 50 50 63 196617 t b l 0 clear;#P inlet 50 30 15 0;#P connect 0 0 1 0;#P fasten 1 0 3 0 55 106 55 106;#P connect 3 0 6 0;#P connect 4 0 3 1;#P fasten 1 2 3 1 89 77 72 77;#P fasten 5 0 2 0 213 95 89 95;#P connect 1 1 2 0;#P fasten 1 3 2 0 106 83 89 83;#P connect 2 0 4 0;#P connect 7 0 5 0;#P pop;