max v2;#N vpatcher 10 59 610 459;#P window setfont "Sans Serif" 9.;#P window linecount 1;#P newex 101 274 27 196617 !- 1;#P outlet 78 350 15 0;#P newex 76 307 29 196617 gate;#P newex 106 120 36 196617 zl reg;#P newex 221 168 51 196617 tosymbol;#P newex 115 172 51 196617 tosymbol;#P newex 113 87 53 196617 t l l b l;#P newex 100 230 74 196617 jk.symb-equal;#P inlet 134 63 15 0;#P connect 8 0 6 0;#P connect 6 0 7 0;#P fasten 2 0 6 1 55 137 55 274;#P connect 3 0 1 0;#P connect 1 0 8 0;#P connect 2 2 5 0;#P connect 0 0 2 0;#P connect 5 0 3 0;#P connect 2 1 5 1;#P connect 4 0 1 1;#P connect 2 3 4 0;#P pop;