max v2;#N vpatcher 10 59 610 459;#P window setfont "Sans Serif" 9.;#P window linecount 1;#P newex 153 221 139 196617 r jk.global-netsend-speedlim;#P newex 83 249 64 196617 speedlim 30;#P newex 285 99 27 196617 !- 1;#P message 284 81 21 196617 $2;#P newex 283 60 48 196617 loadbang;#P newex 330 125 29 196617 gate;#P newex 347 156 109 196617 s jk.netsend-response;#P message 347 90 64 196617 $1;#P newex 347 68 95 196617 r jk.netsend-query;#P newex 118 31 126 196617 r jk.dump-all-parameters;#P newex 118 52 20 196617 t b;#P newex 57 101 36 196617 zl reg;#P newex 162 158 65 196617 s $1;#B color 14;#P newex 83 293 66 196617 s jk.into-net;#P newex 83 196 64 196617 prepend $1;#P newex 57 151 31 196617 t b l;#P inlet 83 30 15 0;#P connect 0 0 5 0;#P connect 6 0 5 0;#P connect 5 0 1 0;#P connect 1 1 2 0;#P connect 2 0 15 0;#P connect 15 0 3 0;#P connect 7 0 6 0;#P connect 16 0 15 1;#P connect 0 0 4 0;#P connect 12 0 13 0;#P connect 13 0 14 0;#P connect 14 0 11 0;#P connect 8 0 9 0;#P connect 11 0 10 0;#P connect 9 0 11 1;#P pop;