max v2;#N vpatcher 10 59 610 459;#P window setfont "Sans Serif" 9.;#P window linecount 1;#P newex 195 91 48 196617 loadbang;#P newex 109 249 168 196617 s $1jk.here;#P newex 108 228 29 196617 gate;#P inlet 149 147 15 0;#P outlet 148 126 15 0;#P message 148 103 29 196617 path;#P newex 120 57 203 196617 r $1jk.there;#P comment 165 136 61 196617 thispatcher;#P newex 116 185 39 196617 jk.L==;#P newex 121 81 40 196617 t s s b;#P comment 62 310 341 196617 make sure that only one copy of each interface or sound module is loaded;#P connect 2 0 8 0;#P connect 8 0 9 0;#P connect 1 1 2 0;#P connect 4 0 1 0;#P fasten 1 0 8 1 96 198;#P connect 7 0 2 1;#P connect 10 0 5 0;#P connect 1 2 5 0;#P connect 5 0 6 0;#P pop;