max v2;#N vpatcher 403 233 1003 633;#P window setfont "Sans Serif" 9.;#P window linecount 1;#P newex 73 141 31 196617 == 2;#P newex 72 115 34 196617 zl len;#P newex 122 50 54 196617 prepend _;#P newex 50 52 54 196617 prepend _;#P newex 74 84 40 196617 zl sect;#P inlet 50 32 15 0;#P inlet 122 30 15 0;#P outlet 73 163 15 0;#P connect 2 0 4 0;#P connect 3 0 6 0;#P connect 6 0 7 0;#P connect 7 0 0 0;#P connect 4 0 3 0;#P connect 5 0 3 1;#P connect 1 0 5 0;#P pop;