max v2;#N vpatcher 10 59 821 797;#P window setfont "Sans Serif" 9.;#P window linecount 1;#P newex 155 345 47 196617 bitsafe~;#P newex 536 108 50 196617 del 1500;#P message 474 126 33 196617 clear;#P newex 596 119 32 196617 del 0;#P inlet 261 53 15 0;#P flonum 601 172 35 9 0 0 0 3 0 0 0 221 221 221 222 222 222 0 0 0;#P message 601 153 79 196617 $1;#P newex 598 87 48 196617 loadbang;#P window setfont Helvetica 9.;#P user filtergraph~ 418 202 256 128 21 9 20. 20000. 0.0625 16. 1 1 1 0 0 1 1;#X frgb 170 170 170;#X brgb 209 209 209;#X rgb2 0 0 0;#X rgb3 130 130 130;#X rgb4 0 0 0;#X rgb5 76 108 172;#X rgb6 210 74 54;#X rgb7 255 22 22;#X linmarkers 5512.5 11025. 16537.5;#X logmarkers 10. 100. 1000. 10000.;#X nfilters 1;#X setfilter 0 1 1 0 0 33. 1.122462 0.5 0. 0. 0. 0. 0. 0.;#X done;#P window setfont "Sans Serif" 9.;#P newex 156 384 134 196617 biquad~ 0.9 0.1 0.1 0.2 0.2;#P newex 156 290 52 196617 pack f 40;#P newex 157 315 44 196617 line~ 1.;#P newex 225 134 29 196617 t b f;#P newex 162 171 27 196617 f;#P newex 225 107 33 196617 / -4.;#P newex 162 201 29 196617 * 1.;#P outlet 156 468 15 0;#P inlet 162 84 15 0;#P connect 6 0 17 0;#P connect 2 0 7 0;#P connect 15 0 8 0;#P connect 17 0 8 0;#P connect 8 0 1 0;#P connect 7 0 6 0;#P connect 5 0 4 0;#P connect 0 0 4 0;#P connect 4 0 2 0;#P connect 9 0 8 1;#P connect 5 1 2 1;#P connect 13 0 3 0;#P connect 3 0 5 0;#P connect 16 0 15 0;#P connect 10 0 16 0;#P connect 12 0 9 5;#P connect 10 0 14 0;#P connect 14 0 11 0;#P connect 11 0 12 0;#P pop;