max v2;#N vpatcher 10 59 610 459;#P inlet 136 29 15 0;#P outlet 154 289 15 0;#P window setfont "Sans Serif" 9.;#P window linecount 1;#P message 195 205 14 196617 0;#P button 198 183 15 0;#P message 110 81 14 196617 1;#N counter;#X flags 0 0;#P newobj 159 152 66 196617 counter;#P message 166 82 33 196617 set 1;#P newex 91 55 131 196617 t b i b b i;#P newex 110 103 53 196617 metro $1;#P connect 8 0 1 0;#P connect 1 2 4 0;#P fasten 6 0 0 0 200 236 66 236 66 99 115 99;#P connect 4 0 0 0;#P connect 3 0 7 0;#P connect 2 0 3 0;#P fasten 0 0 3 0 115 139;#P connect 1 3 2 0;#P connect 5 0 6 0;#P connect 3 2 5 0;#P connect 1 4 3 4;#P pop;