max v2;#N vpatcher 650 89 1485 623;#P toggle 734 129 39 0;#P window setfont "Sans Serif" 9.;#P newex 650 151 43 196617 pipe 30;#P newex 521 147 52 196617 change 0.;#P newex 467 148 52 196617 change 0.;#P newex 411 148 52 196617 change 0.;#P newex 358 147 52 196617 change 0.;#P newex 215 50 40 196617 change;#P inlet 756 52 15 0;#P message 625 238 68 196617 0 \, 1 200 0.5;#P message 610 213 76 196617 1 \, 0 200 0.5;#P newex 612 182 55 196617 select 0 1;#P button 590 154 15 0;#P button 323 157 15 0;#P inlet 685 32 15 0;#P inlet 223 23 15 0;#P inlet 379 56 15 0;#P inlet 336 53 15 0;#P flonum 357 122 35 9 0 0 0 3 0 0 0 221 221 221 222 222 222 0 0 0;#P flonum 401 122 35 9 0 0 0 3 0 0 0 221 221 221 222 222 222 0 0 0;#P flonum 445 122 35 9 0 0 0 3 0 0 0 221 221 221 222 222 222 0 0 0;#P flonum 489 122 35 9 0 0 0 3 0 0 0 221 221 221 222 222 222 0 0 0;#P inlet 356 54 15 0;#P newex 221 130 31 196617 + 80;#P newex 221 102 77 196617 drunk 150 111;#P inlet 554 53 15 0;#P inlet 514 53 15 0;#P inlet 474 53 15 0;#P inlet 434 53 15 0;#P newex 338 179 127 196617 pack 1 12 -0.5 0 12 -0.5;#P newex 338 281 51 196617 curve~ 0;#P newex 222 77 58 196617 metro 100;#P newex 165 328 32 196617 *~ 1;#P outlet 165 431 15 0;#P inlet 163 53 15 0;#P connect 0 0 2 0;#P connect 2 0 1 0;#P connect 4 0 2 1;#P connect 19 0 27 0;#P connect 3 0 10 0;#P connect 10 0 11 0;#P connect 27 0 3 0;#P connect 18 0 11 1;#P connect 17 0 10 1;#P fasten 11 0 3 1 226 150 303 150 303 63 275 63;#P connect 12 0 10 2;#P connect 3 0 21 0;#P connect 21 0 5 0;#P connect 22 0 5 0;#P connect 5 0 4 0;#P fasten 24 0 4 0 615 255 343 255;#P fasten 25 0 4 0 630 267 343 267;#P connect 6 0 16 0;#P connect 16 0 28 0;#P connect 28 0 5 1;#P connect 29 0 5 2;#P connect 7 0 15 0;#P connect 15 0 29 0;#P connect 30 0 5 4;#P connect 8 0 14 0;#P connect 31 0 5 5;#P connect 14 0 30 0;#P connect 9 0 13 0;#P connect 13 0 31 0;#P connect 20 0 22 0;#P connect 23 0 24 0;#P connect 32 0 23 0;#P connect 23 1 25 0;#P connect 26 0 32 0;#P connect 32 0 33 0;#P pop;