max v2;#N vpatcher 183 66 980 745;#P window setfont "Sans Serif" 9.;#P window linecount 1;#P newex 288 372 28 196617 !- 1.;#P newex 247 173 35 196617 abs 0.;#P newex 617 197 27 196617 + 1;#P newex 616 176 27 196617 > 0.;#P newex 217 124 27 196617 t f f;#P newex 318 346 35 196617 gate 2;#P newex 168 84 45 196617 select 0.;#P newex 166 168 27 196617 t b f;#P outlet 386 515 15 0;#P inlet 168 60 15 0;#P newex 258 572 40 196617 pack i i;#P newex 191 503 93 196617 zmap 0. 50. 0. 50.;#P newex 286 433 93 196617 zmap 0. 50. 0. 50.;#P newex 285 461 33 196617 !- 50;#P newex 178 301 40 196617 t b b b;#P message 501 395 67 196617 moveto 0 50;#P message 483 333 31 196617 clear;#P newex 345 478 71 196617 prepend lineto;#P newex 185 191 45 196617 select 1.;#P newex 326 186 53 196617 t b f b b;#P newex 290 399 87 196617 zmap 0. 1. 0. 50.;#P button 247 219 15 0;#P button 178 271 15 0;#P newex 169 329 40 196617 uzi 50;#P newex 299 294 115 196617 expr pow($f1\\\, 1/$f2);#P newex 300 269 87 196617 zmap 0. 50. 0. 1.;#P newex 248 236 40 196617 uzi 50;#P connect 22 0 19 0;#P connect 17 0 20 0;#P connect 12 0 3 0;#P connect 8 0 4 0;#P connect 4 0 12 0;#P connect 19 1 8 0;#P connect 0 2 15 0;#P connect 3 2 15 0;#P connect 20 1 22 0;#P connect 8 1 25 0;#P connect 7 0 5 0;#P connect 5 0 0 0;#P connect 15 0 16 0;#P connect 14 0 13 0;#P connect 3 2 14 0;#P connect 6 0 14 0;#P connect 21 0 26 0;#P connect 13 0 16 1;#P connect 26 0 6 0;#P connect 21 1 6 0;#P connect 1 0 2 0;#P connect 0 2 1 0;#P fasten 24 0 21 0 622 222 611 222 611 327 323 327;#P connect 25 0 7 0;#P connect 2 0 21 1;#P connect 16 0 9 0;#P connect 10 0 18 0;#P connect 11 0 18 0;#P connect 9 0 18 0;#P fasten 7 1 2 1 346 251 409 251;#P connect 12 2 10 0;#P connect 7 3 10 0;#P connect 12 1 11 0;#P connect 7 3 11 0;#P connect 22 1 23 0;#P connect 23 0 24 0;#P pop;