{
	"patcher" : 	{
		"fileversion" : 1,
		"appversion" : 		{
			"major" : 8,
			"minor" : 2,
			"revision" : 0,
			"architecture" : "x64",
			"modernui" : 1
		}
,
		"classnamespace" : "box",
		"rect" : [ 139.0, 325.0, 696.0, 349.0 ],
		"bglocked" : 0,
		"openinpresentation" : 1,
		"default_fontsize" : 12.0,
		"default_fontface" : 0,
		"default_fontname" : "Arial",
		"gridonopen" : 1,
		"gridsize" : [ 15.0, 15.0 ],
		"gridsnaponopen" : 1,
		"objectsnaponopen" : 1,
		"statusbarvisible" : 2,
		"toolbarvisible" : 1,
		"lefttoolbarpinned" : 0,
		"toptoolbarpinned" : 0,
		"righttoolbarpinned" : 0,
		"bottomtoolbarpinned" : 0,
		"toolbars_unpinned_last_save" : 0,
		"tallnewobj" : 0,
		"boxanimatetime" : 200,
		"enablehscroll" : 1,
		"enablevscroll" : 1,
		"devicewidth" : 0.0,
		"description" : "",
		"digest" : "",
		"tags" : "",
		"style" : "",
		"subpatcher_template" : "",
		"assistshowspatchername" : 0,
		"boxes" : [ 			{
				"box" : 				{
					"fontname" : "Arial",
					"fontsize" : 10.0,
					"id" : "obj-3",
					"maxclass" : "message",
					"numinlets" : 2,
					"numoutlets" : 1,
					"outlettype" : [ "" ],
					"patching_rect" : [ 358.0, 151.0, 54.0, 20.0 ],
					"presentation" : 1,
					"presentation_rect" : [ 288.0, 196.0, 54.0, 20.0 ],
					"text" : "inx front"
				}

			}
, 			{
				"box" : 				{
					"fontname" : "Arial",
					"fontsize" : 10.0,
					"id" : "obj-4",
					"maxclass" : "newobj",
					"numinlets" : 1,
					"numoutlets" : 1,
					"outlettype" : [ "" ],
					"patching_rect" : [ 358.0, 178.0, 216.0, 20.0 ],
					"presentation" : 1,
					"presentation_rect" : [ 288.0, 223.0, 216.0, 20.0 ],
					"text" : "pattrforward parent::Register::chat-parent::chat"
				}

			}
, 			{
				"box" : 				{
					"activebgcolor" : [ 0.647058823529412, 0.647058823529412, 0.647058823529412, 0.0 ],
					"activebgoncolor" : [ 1.0, 0.709803921568627, 0.196078431372549, 0.0 ],
					"activetextcolor" : [ 0.866666666666667, 0.866666666666667, 0.901960784313726, 1.0 ],
					"bgcolor" : [ 0.647058823529412, 0.647058823529412, 0.647058823529412, 0.0 ],
					"bgoncolor" : [ 0.764705882352941, 0.764705882352941, 0.764705882352941, 0.0 ],
					"bordercolor" : [ 0.313725490196078, 0.313725490196078, 0.313725490196078, 0.0 ],
					"focusbordercolor" : [ 0.313725490196078, 0.313725490196078, 0.313725490196078, 0.0 ],
					"hint" : "Chat",
					"id" : "obj-27",
					"maxclass" : "live.text",
					"mode" : 0,
					"numinlets" : 1,
					"numoutlets" : 2,
					"outlettype" : [ "", "" ],
					"parameter_enable" : 1,
					"patching_rect" : [ 358.0, 84.0, 50.0, 50.0 ],
					"pictures" : [ "remarks2.svg", "<none>" ],
					"presentation" : 1,
					"presentation_rect" : [ 210.0, 4.0, 40.0, 40.0 ],
					"saved_attribute_attributes" : 					{
						"activebgoncolor" : 						{
							"expression" : ""
						}
,
						"bgoncolor" : 						{
							"expression" : ""
						}
,
						"activebgcolor" : 						{
							"expression" : ""
						}
,
						"bordercolor" : 						{
							"expression" : ""
						}
,
						"bgcolor" : 						{
							"expression" : ""
						}
,
						"focusbordercolor" : 						{
							"expression" : ""
						}
,
						"activetextcolor" : 						{
							"expression" : ""
						}
,
						"valueof" : 						{
							"parameter_enum" : [ "val1", "val2" ],
							"parameter_longname" : "live.text[3]",
							"parameter_mmax" : 1,
							"parameter_shortname" : "live.text[2]",
							"parameter_type" : 2
						}

					}
,
					"usepicture" : 1,
					"varname" : "live.text[6]"
				}

			}
, 			{
				"box" : 				{
					"fontname" : "Arial",
					"fontsize" : 12.0,
					"id" : "obj-41",
					"maxclass" : "newobj",
					"numinlets" : 1,
					"numoutlets" : 1,
					"outlettype" : [ "int" ],
					"patching_rect" : [ 278.0, 174.0, 24.0, 22.0 ],
					"text" : "t 1"
				}

			}
, 			{
				"box" : 				{
					"fontname" : "Arial",
					"fontsize" : 12.0,
					"id" : "obj-40",
					"maxclass" : "newobj",
					"numinlets" : 1,
					"numoutlets" : 1,
					"outlettype" : [ "int" ],
					"patching_rect" : [ 212.5, 174.0, 24.0, 22.0 ],
					"text" : "t 0"
				}

			}
, 			{
				"box" : 				{
					"fontname" : "Arial",
					"fontsize" : 9.0,
					"hidden" : 1,
					"id" : "obj-39",
					"maxclass" : "newobj",
					"numinlets" : 1,
					"numoutlets" : 1,
					"outlettype" : [ "" ],
					"patching_rect" : [ 212.5, 206.0, 157.0, 19.0 ],
					"text" : "pattrforward parent::presets::settings",
					"varname" : "select[1]"
				}

			}
, 			{
				"box" : 				{
					"activebgcolor" : [ 0.647058823529412, 0.647058823529412, 0.647058823529412, 0.0 ],
					"bgcolor" : [ 0.647058823529412, 0.647058823529412, 0.647058823529412, 0.0 ],
					"bgoncolor" : [ 0.764705882352941, 0.764705882352941, 0.764705882352941, 0.0 ],
					"bordercolor" : [ 0.313725490196078, 0.313725490196078, 0.313725490196078, 0.0 ],
					"focusbordercolor" : [ 0.313725490196078, 0.313725490196078, 0.313725490196078, 0.0 ],
					"hint" : "Preferences",
					"id" : "obj-37",
					"maxclass" : "live.text",
					"mode" : 0,
					"numinlets" : 1,
					"numoutlets" : 2,
					"outlettype" : [ "", "" ],
					"parameter_enable" : 1,
					"patching_rect" : [ 62.333333333333343, 86.5, 45.0, 45.0 ],
					"pictures" : [ "viewbyname_on.svg", "<none>" ],
					"presentation" : 1,
					"presentation_rect" : [ 3.0, 4.0, 40.0, 40.0 ],
					"saved_attribute_attributes" : 					{
						"bgoncolor" : 						{
							"expression" : ""
						}
,
						"activebgcolor" : 						{
							"expression" : ""
						}
,
						"bordercolor" : 						{
							"expression" : ""
						}
,
						"bgcolor" : 						{
							"expression" : ""
						}
,
						"focusbordercolor" : 						{
							"expression" : ""
						}
,
						"valueof" : 						{
							"parameter_enum" : [ "val1", "val2" ],
							"parameter_invisible" : 2,
							"parameter_longname" : "live.text[13]",
							"parameter_mmax" : 1,
							"parameter_shortname" : "live.text[2]",
							"parameter_type" : 2
						}

					}
,
					"usepicture" : 1,
					"varname" : "live.text[1]"
				}

			}
, 			{
				"box" : 				{
					"activebgcolor" : [ 0.647058823529412, 0.647058823529412, 0.647058823529412, 0.0 ],
					"bgcolor" : [ 0.647058823529412, 0.647058823529412, 0.647058823529412, 0.0 ],
					"bgoncolor" : [ 0.764705882352941, 0.764705882352941, 0.764705882352941, 0.0 ],
					"bordercolor" : [ 0.313725490196078, 0.313725490196078, 0.313725490196078, 0.0 ],
					"focusbordercolor" : [ 0.313725490196078, 0.313725490196078, 0.313725490196078, 0.0 ],
					"hint" : "Save Preset File",
					"id" : "obj-36",
					"maxclass" : "live.text",
					"mode" : 0,
					"numinlets" : 1,
					"numoutlets" : 2,
					"outlettype" : [ "", "" ],
					"parameter_enable" : 1,
					"patching_rect" : [ 279.5, 80.0, 50.0, 50.0 ],
					"pictures" : [ "pencil_on.svg", "<none>" ],
					"presentation" : 1,
					"presentation_rect" : [ 139.5, 4.0, 40.0, 40.0 ],
					"saved_attribute_attributes" : 					{
						"bgoncolor" : 						{
							"expression" : ""
						}
,
						"activebgcolor" : 						{
							"expression" : ""
						}
,
						"bordercolor" : 						{
							"expression" : ""
						}
,
						"bgcolor" : 						{
							"expression" : ""
						}
,
						"focusbordercolor" : 						{
							"expression" : ""
						}
,
						"valueof" : 						{
							"parameter_enum" : [ "val1", "val2" ],
							"parameter_longname" : "live.text[11]",
							"parameter_mmax" : 1,
							"parameter_shortname" : "live.text[2]",
							"parameter_type" : 2
						}

					}
,
					"usepicture" : 1,
					"varname" : "live.text[2]"
				}

			}
, 			{
				"box" : 				{
					"comment" : "",
					"hidden" : 1,
					"id" : "obj-18",
					"index" : 1,
					"maxclass" : "outlet",
					"numinlets" : 1,
					"numoutlets" : 0,
					"patching_rect" : [ 62.0, 184.0, 30.0, 30.0 ]
				}

			}
, 			{
				"box" : 				{
					"activebgcolor" : [ 0.647058823529412, 0.647058823529412, 0.647058823529412, 0.0 ],
					"bgcolor" : [ 0.647058823529412, 0.647058823529412, 0.647058823529412, 0.0 ],
					"bgoncolor" : [ 0.764705882352941, 0.764705882352941, 0.764705882352941, 0.0 ],
					"bordercolor" : [ 0.313725490196078, 0.313725490196078, 0.313725490196078, 0.0 ],
					"focusbordercolor" : [ 0.313725490196078, 0.313725490196078, 0.313725490196078, 0.0 ],
					"hint" : "Open Preset File",
					"id" : "obj-20",
					"maxclass" : "live.text",
					"mode" : 0,
					"numinlets" : 1,
					"numoutlets" : 2,
					"outlettype" : [ "", "" ],
					"parameter_enable" : 1,
					"patching_rect" : [ 212.5, 80.0, 50.0, 50.0 ],
					"pictures" : [ "folders_on.svg", "<none>" ],
					"presentation" : 1,
					"presentation_rect" : [ 70.0, 4.0, 40.0, 40.0 ],
					"saved_attribute_attributes" : 					{
						"bgoncolor" : 						{
							"expression" : ""
						}
,
						"activebgcolor" : 						{
							"expression" : ""
						}
,
						"bordercolor" : 						{
							"expression" : ""
						}
,
						"bgcolor" : 						{
							"expression" : ""
						}
,
						"focusbordercolor" : 						{
							"expression" : ""
						}
,
						"valueof" : 						{
							"parameter_enum" : [ "val1", "val2" ],
							"parameter_longname" : "live.text[12]",
							"parameter_mmax" : 1,
							"parameter_shortname" : "live.text[2]",
							"parameter_type" : 2
						}

					}
,
					"usepicture" : 1,
					"varname" : "Preferences"
				}

			}
, 			{
				"box" : 				{
					"fontname" : "Arial",
					"fontsize" : 9.0,
					"hidden" : 1,
					"id" : "obj-28",
					"maxclass" : "newobj",
					"numinlets" : 1,
					"numoutlets" : 4,
					"outlettype" : [ "", "", "", "" ],
					"patching_rect" : [ 51.0, 17.0, 53.0, 19.0 ],
					"restore" : 					{
						"live.text[6]" : [ 0.0 ]
					}
,
					"text" : "autopattr",
					"varname" : "u229031042"
				}

			}
, 			{
				"box" : 				{
					"fontname" : "Arial",
					"fontsize" : 9.0,
					"hidden" : 1,
					"id" : "obj-29",
					"maxclass" : "message",
					"numinlets" : 2,
					"numoutlets" : 1,
					"outlettype" : [ "" ],
					"patching_rect" : [ 62.0, 151.0, 33.0, 19.0 ],
					"text" : "front"
				}

			}
 ],
		"lines" : [ 			{
				"patchline" : 				{
					"destination" : [ "obj-40", 0 ],
					"source" : [ "obj-20", 0 ]
				}

			}
, 			{
				"patchline" : 				{
					"destination" : [ "obj-3", 0 ],
					"source" : [ "obj-27", 0 ]
				}

			}
, 			{
				"patchline" : 				{
					"destination" : [ "obj-20", 0 ],
					"hidden" : 1,
					"order" : 1,
					"source" : [ "obj-28", 1 ]
				}

			}
, 			{
				"patchline" : 				{
					"destination" : [ "obj-36", 0 ],
					"order" : 0,
					"source" : [ "obj-28", 1 ]
				}

			}
, 			{
				"patchline" : 				{
					"destination" : [ "obj-37", 0 ],
					"order" : 2,
					"source" : [ "obj-28", 1 ]
				}

			}
, 			{
				"patchline" : 				{
					"destination" : [ "obj-18", 0 ],
					"hidden" : 1,
					"source" : [ "obj-29", 0 ]
				}

			}
, 			{
				"patchline" : 				{
					"destination" : [ "obj-4", 0 ],
					"source" : [ "obj-3", 0 ]
				}

			}
, 			{
				"patchline" : 				{
					"destination" : [ "obj-41", 0 ],
					"source" : [ "obj-36", 0 ]
				}

			}
, 			{
				"patchline" : 				{
					"destination" : [ "obj-29", 0 ],
					"hidden" : 1,
					"source" : [ "obj-37", 0 ]
				}

			}
, 			{
				"patchline" : 				{
					"destination" : [ "obj-39", 0 ],
					"source" : [ "obj-40", 0 ]
				}

			}
, 			{
				"patchline" : 				{
					"destination" : [ "obj-39", 0 ],
					"source" : [ "obj-41", 0 ]
				}

			}
 ],
		"bgcolor" : [ 1.0, 1.0, 1.0, 0.0 ]
	}

}
