{
	"patcher" : 	{
		"fileversion" : 1,
		"rect" : [ 15.0, 55.0, 914.0, 617.0 ],
		"bglocked" : 0,
		"defrect" : [ 15.0, 55.0, 914.0, 617.0 ],
		"openrect" : [ 0.0, 0.0, 0.0, 0.0 ],
		"openinpresentation" : 0,
		"default_fontsize" : 10.0,
		"default_fontface" : 0,
		"default_fontname" : "Arial",
		"gridonopen" : 0,
		"gridsize" : [ 15.0, 15.0 ],
		"gridsnaponopen" : 0,
		"toolbarvisible" : 1,
		"boxanimatetime" : 200,
		"imprint" : 0,
		"boxes" : [ 			{
				"box" : 				{
					"maxclass" : "outlet",
					"numinlets" : 1,
					"patching_rect" : [ 345.0, 379.0, 15.0, 15.0 ],
					"numoutlets" : 0,
					"id" : "obj-1",
					"comment" : ""
				}

			}
, 			{
				"box" : 				{
					"maxclass" : "newobj",
					"text" : "/ 127.",
					"fontsize" : 9.0,
					"numinlets" : 2,
					"patching_rect" : [ 345.0, 222.0, 37.0, 17.0 ],
					"numoutlets" : 1,
					"id" : "obj-2",
					"fontname" : "Arial",
					"outlettype" : [ "float" ]
				}

			}
, 			{
				"box" : 				{
					"maxclass" : "newobj",
					"text" : "* 100.",
					"fontsize" : 9.0,
					"numinlets" : 2,
					"patching_rect" : [ 344.0, 265.0, 38.0, 17.0 ],
					"numoutlets" : 1,
					"id" : "obj-3",
					"fontname" : "Arial",
					"outlettype" : [ "float" ]
				}

			}
, 			{
				"box" : 				{
					"maxclass" : "outlet",
					"numinlets" : 1,
					"patching_rect" : [ 212.0, 377.0, 15.0, 15.0 ],
					"numoutlets" : 0,
					"id" : "obj-4",
					"comment" : ""
				}

			}
, 			{
				"box" : 				{
					"maxclass" : "inlet",
					"numinlets" : 0,
					"patching_rect" : [ 178.0, 149.0, 15.0, 15.0 ],
					"numoutlets" : 1,
					"id" : "obj-5",
					"outlettype" : [ "" ],
					"comment" : ""
				}

			}
, 			{
				"box" : 				{
					"maxclass" : "newobj",
					"text" : "expr (127 - $i1)",
					"linecount" : 2,
					"fontsize" : 9.0,
					"numinlets" : 1,
					"patching_rect" : [ 249.0, 224.0, 69.0, 27.0 ],
					"numoutlets" : 1,
					"id" : "obj-6",
					"fontname" : "Arial",
					"outlettype" : [ "" ]
				}

			}
, 			{
				"box" : 				{
					"maxclass" : "message",
					"text" : "#1",
					"fontsize" : 9.0,
					"numinlets" : 2,
					"patching_rect" : [ 163.0, 229.0, 21.0, 15.0 ],
					"numoutlets" : 1,
					"id" : "obj-7",
					"fontname" : "Arial",
					"outlettype" : [ "" ]
				}

			}
, 			{
				"box" : 				{
					"maxclass" : "newobj",
					"text" : "coll parameters",
					"linecount" : 2,
					"fontsize" : 9.0,
					"numinlets" : 1,
					"patching_rect" : [ 164.0, 284.0, 69.0, 27.0 ],
					"numoutlets" : 4,
					"id" : "obj-8",
					"fontname" : "Arial",
					"outlettype" : [ "", "", "", "" ],
					"saved_object_attributes" : 					{
						"embed" : 0
					}

				}

			}
, 			{
				"box" : 				{
					"maxclass" : "newobj",
					"text" : "/ 127.",
					"fontsize" : 9.0,
					"numinlets" : 2,
					"patching_rect" : [ 249.0, 286.0, 37.0, 17.0 ],
					"numoutlets" : 1,
					"id" : "obj-9",
					"fontname" : "Arial",
					"outlettype" : [ "float" ]
				}

			}
, 			{
				"box" : 				{
					"maxclass" : "newobj",
					"text" : "chgparm",
					"fontsize" : 9.0,
					"numinlets" : 2,
					"patching_rect" : [ 213.0, 331.0, 44.0, 17.0 ],
					"numoutlets" : 1,
					"id" : "obj-10",
					"fontname" : "Arial",
					"outlettype" : [ "" ]
				}

			}
 ],
		"lines" : [ 			{
				"patchline" : 				{
					"source" : [ "obj-3", 0 ],
					"destination" : [ "obj-1", 0 ],
					"hidden" : 0,
					"midpoints" : [  ]
				}

			}
, 			{
				"patchline" : 				{
					"source" : [ "obj-5", 0 ],
					"destination" : [ "obj-2", 0 ],
					"hidden" : 0,
					"midpoints" : [  ]
				}

			}
, 			{
				"patchline" : 				{
					"source" : [ "obj-2", 0 ],
					"destination" : [ "obj-3", 0 ],
					"hidden" : 0,
					"midpoints" : [  ]
				}

			}
, 			{
				"patchline" : 				{
					"source" : [ "obj-6", 0 ],
					"destination" : [ "obj-9", 0 ],
					"hidden" : 0,
					"midpoints" : [  ]
				}

			}
, 			{
				"patchline" : 				{
					"source" : [ "obj-5", 0 ],
					"destination" : [ "obj-6", 0 ],
					"hidden" : 0,
					"midpoints" : [  ]
				}

			}
, 			{
				"patchline" : 				{
					"source" : [ "obj-9", 0 ],
					"destination" : [ "obj-10", 1 ],
					"hidden" : 0,
					"midpoints" : [  ]
				}

			}
, 			{
				"patchline" : 				{
					"source" : [ "obj-8", 0 ],
					"destination" : [ "obj-10", 0 ],
					"hidden" : 0,
					"midpoints" : [  ]
				}

			}
, 			{
				"patchline" : 				{
					"source" : [ "obj-10", 0 ],
					"destination" : [ "obj-4", 0 ],
					"hidden" : 0,
					"midpoints" : [  ]
				}

			}
, 			{
				"patchline" : 				{
					"source" : [ "obj-7", 0 ],
					"destination" : [ "obj-8", 0 ],
					"hidden" : 0,
					"midpoints" : [  ]
				}

			}
, 			{
				"patchline" : 				{
					"source" : [ "obj-5", 0 ],
					"destination" : [ "obj-7", 0 ],
					"hidden" : 0,
					"midpoints" : [  ]
				}

			}
 ]
	}

}
