{
	"patcher" : 	{
		"fileversion" : 1,
		"rect" : [ 279.0, 188.0, 600.0, 426.0 ],
		"bglocked" : 0,
		"defrect" : [ 279.0, 188.0, 600.0, 426.0 ],
		"openrect" : [ 0.0, 0.0, 0.0, 0.0 ],
		"openinpresentation" : 0,
		"default_fontsize" : 10.0,
		"default_fontface" : 0,
		"default_fontname" : "Arial",
		"gridonopen" : 0,
		"gridsize" : [ 15.0, 15.0 ],
		"gridsnaponopen" : 0,
		"toolbarvisible" : 1,
		"boxanimatetime" : 200,
		"imprint" : 0,
		"boxes" : [ 			{
				"box" : 				{
					"maxclass" : "outlet",
					"numinlets" : 1,
					"patching_rect" : [ 235.0, 147.0, 15.0, 15.0 ],
					"numoutlets" : 0,
					"id" : "obj-1",
					"comment" : ""
				}

			}
, 			{
				"box" : 				{
					"maxclass" : "button",
					"numinlets" : 1,
					"patching_rect" : [ 214.0, 119.0, 15.0, 15.0 ],
					"numoutlets" : 1,
					"id" : "obj-2",
					"outlettype" : [ "bang" ]
				}

			}
, 			{
				"box" : 				{
					"maxclass" : "button",
					"numinlets" : 1,
					"patching_rect" : [ 94.0, 119.0, 15.0, 15.0 ],
					"numoutlets" : 1,
					"id" : "obj-3",
					"outlettype" : [ "bang" ]
				}

			}
, 			{
				"box" : 				{
					"maxclass" : "message",
					"text" : "autowatch 1",
					"fontsize" : 9.0,
					"numinlets" : 2,
					"patching_rect" : [ 132.0, 227.0, 65.0, 15.0 ],
					"numoutlets" : 1,
					"id" : "obj-4",
					"fontname" : "Arial",
					"outlettype" : [ "" ]
				}

			}
, 			{
				"box" : 				{
					"maxclass" : "newobj",
					"text" : "loadbang",
					"fontsize" : 9.0,
					"numinlets" : 1,
					"patching_rect" : [ 132.0, 200.0, 48.0, 17.0 ],
					"numoutlets" : 1,
					"id" : "obj-5",
					"fontname" : "Arial",
					"outlettype" : [ "bang" ]
				}

			}
, 			{
				"box" : 				{
					"maxclass" : "newobj",
					"text" : "js detect.js",
					"fontsize" : 9.0,
					"numinlets" : 1,
					"patching_rect" : [ 12.0, 55.0, 236.0, 17.0 ],
					"numoutlets" : 5,
					"id" : "obj-6",
					"fontname" : "Arial",
					"outlettype" : [ "", "", "", "", "" ]
				}

			}
, 			{
				"box" : 				{
					"maxclass" : "comment",
					"text" : "BAD CRC",
					"fontsize" : 12.0,
					"frgb" : [ 0.8, 0.54902, 0.54902, 1.0 ],
					"numinlets" : 1,
					"textcolor" : [ 0.8, 0.54902, 0.54902, 1.0 ],
					"patching_rect" : [ 131.0, 98.0, 113.0, 20.0 ],
					"numoutlets" : 0,
					"id" : "obj-7",
					"fontname" : "Arial"
				}

			}
, 			{
				"box" : 				{
					"maxclass" : "number",
					"fontsize" : 12.0,
					"bgcolor" : [ 0.0, 0.0, 0.0, 1.0 ],
					"htextcolor" : [ 0.870588, 0.870588, 0.870588, 1.0 ],
					"numinlets" : 1,
					"textcolor" : [ 1.0, 0.035294, 0.054902, 1.0 ],
					"patching_rect" : [ 131.0, 117.0, 80.0, 20.0 ],
					"numoutlets" : 2,
					"cantchange" : 1,
					"triscale" : 0.9,
					"id" : "obj-8",
					"format" : 1,
					"fontname" : "Arial",
					"outlettype" : [ "int", "bang" ]
				}

			}
, 			{
				"box" : 				{
					"maxclass" : "outlet",
					"numinlets" : 1,
					"patching_rect" : [ 130.0, 149.0, 15.0, 15.0 ],
					"numoutlets" : 0,
					"id" : "obj-9",
					"comment" : ""
				}

			}
, 			{
				"box" : 				{
					"maxclass" : "outlet",
					"numinlets" : 1,
					"patching_rect" : [ 13.0, 149.0, 15.0, 15.0 ],
					"numoutlets" : 0,
					"id" : "obj-10",
					"comment" : ""
				}

			}
, 			{
				"box" : 				{
					"maxclass" : "inlet",
					"numinlets" : 0,
					"patching_rect" : [ 12.0, 14.0, 15.0, 15.0 ],
					"numoutlets" : 1,
					"id" : "obj-11",
					"outlettype" : [ "" ],
					"comment" : ""
				}

			}
, 			{
				"box" : 				{
					"maxclass" : "number",
					"fontsize" : 12.0,
					"bgcolor" : [ 0.0, 0.0, 0.0, 1.0 ],
					"htextcolor" : [ 0.870588, 0.870588, 0.870588, 1.0 ],
					"numinlets" : 1,
					"textcolor" : [ 1.0, 0.035294, 0.054902, 1.0 ],
					"patching_rect" : [ 12.0, 117.0, 80.0, 20.0 ],
					"numoutlets" : 2,
					"cantchange" : 1,
					"triscale" : 0.9,
					"id" : "obj-12",
					"format" : 1,
					"fontname" : "Arial",
					"outlettype" : [ "int", "bang" ]
				}

			}
, 			{
				"box" : 				{
					"maxclass" : "number",
					"fontsize" : 12.0,
					"bgcolor" : [ 0.0, 0.0, 0.0, 1.0 ],
					"htextcolor" : [ 0.870588, 0.870588, 0.870588, 1.0 ],
					"numinlets" : 1,
					"textcolor" : [ 1.0, 0.035294, 0.054902, 1.0 ],
					"patching_rect" : [ 44.0, 28.0, 84.0, 20.0 ],
					"numoutlets" : 2,
					"cantchange" : 1,
					"triscale" : 0.9,
					"id" : "obj-13",
					"format" : 1,
					"fontname" : "Arial",
					"outlettype" : [ "int", "bang" ]
				}

			}
, 			{
				"box" : 				{
					"maxclass" : "comment",
					"text" : "DATA",
					"fontsize" : 10.0,
					"frgb" : [ 0.8, 0.54902, 0.54902, 1.0 ],
					"numinlets" : 1,
					"textcolor" : [ 0.8, 0.54902, 0.54902, 1.0 ],
					"patching_rect" : [ 133.0, 31.0, 77.0, 18.0 ],
					"numoutlets" : 0,
					"id" : "obj-14",
					"fontname" : "Arial"
				}

			}
, 			{
				"box" : 				{
					"maxclass" : "comment",
					"text" : "GOOD CRC",
					"fontsize" : 12.0,
					"frgb" : [ 0.8, 0.54902, 0.54902, 1.0 ],
					"numinlets" : 1,
					"textcolor" : [ 0.8, 0.54902, 0.54902, 1.0 ],
					"patching_rect" : [ 13.0, 98.0, 113.0, 20.0 ],
					"numoutlets" : 0,
					"id" : "obj-15",
					"fontname" : "Arial"
				}

			}
 ],
		"lines" : [ 			{
				"patchline" : 				{
					"source" : [ "obj-6", 4 ],
					"destination" : [ "obj-1", 0 ],
					"hidden" : 0,
					"midpoints" : [  ]
				}

			}
, 			{
				"patchline" : 				{
					"source" : [ "obj-6", 1 ],
					"destination" : [ "obj-2", 0 ],
					"hidden" : 0,
					"midpoints" : [  ]
				}

			}
, 			{
				"patchline" : 				{
					"source" : [ "obj-5", 0 ],
					"destination" : [ "obj-4", 0 ],
					"hidden" : 0,
					"midpoints" : [  ]
				}

			}
, 			{
				"patchline" : 				{
					"source" : [ "obj-6", 1 ],
					"destination" : [ "obj-8", 0 ],
					"hidden" : 0,
					"midpoints" : [  ]
				}

			}
, 			{
				"patchline" : 				{
					"source" : [ "obj-6", 3 ],
					"destination" : [ "obj-9", 0 ],
					"hidden" : 0,
					"midpoints" : [  ]
				}

			}
, 			{
				"patchline" : 				{
					"source" : [ "obj-6", 0 ],
					"destination" : [ "obj-3", 0 ],
					"hidden" : 0,
					"midpoints" : [  ]
				}

			}
, 			{
				"patchline" : 				{
					"source" : [ "obj-11", 0 ],
					"destination" : [ "obj-13", 0 ],
					"hidden" : 0,
					"midpoints" : [  ]
				}

			}
, 			{
				"patchline" : 				{
					"source" : [ "obj-6", 2 ],
					"destination" : [ "obj-10", 0 ],
					"hidden" : 0,
					"midpoints" : [  ]
				}

			}
, 			{
				"patchline" : 				{
					"source" : [ "obj-6", 0 ],
					"destination" : [ "obj-12", 0 ],
					"hidden" : 0,
					"midpoints" : [  ]
				}

			}
, 			{
				"patchline" : 				{
					"source" : [ "obj-4", 0 ],
					"destination" : [ "obj-6", 0 ],
					"hidden" : 0,
					"midpoints" : [  ]
				}

			}
, 			{
				"patchline" : 				{
					"source" : [ "obj-11", 0 ],
					"destination" : [ "obj-6", 0 ],
					"hidden" : 0,
					"midpoints" : [  ]
				}

			}
 ]
	}

}
